<svg width="1911" height="794" viewBox="0 0 1911 794" fill="none" xmlns="http://www.w3.org/2000/svg">
<path d="M108.623 211.563C123.51 145.549 192.688 107.334 256.495 129.875L1043.55 407.919C1072.93 418.296 1105.28 416.086 1132.97 401.811L1316.64 307.125C1429.83 248.776 1538.06 393.111 1450.33 485.412L1203.86 744.727C1175.41 774.66 1132.9 786.689 1092.98 776.102L563.962 635.781C550.283 632.152 536.044 631.126 521.986 632.755L158.293 674.894C80.9478 683.855 17.9267 613.741 35.0556 537.786L108.623 211.563Z" fill="#FFFCDC"/>
<g style="mix-blend-mode:multiply">
<path d="M1200.09 267.8C1209.43 180.943 1309.57 137.072 1379.75 189.1L1543.75 310.691C1571.01 330.902 1609.12 327.334 1632.15 302.413V302.413C1683.36 247.011 1772.64 306.232 1741.52 374.955L1667.79 537.754C1642.43 593.752 1571.5 611.494 1522.76 574.03L1425.5 499.267C1396.53 476.995 1357.43 473.068 1324.61 489.133V489.133C1256.61 522.407 1178.61 467.731 1186.7 392.467L1200.09 267.8Z" fill="#FFC107"/>
</g>
</svg>
